<svg width="368" height="364" xmlns="http://www.w3.org/2000/svg" xmlns:xlink="http://www.w3.org/1999/xlink" overflow="hidden"><defs><clipPath id="clip0"><rect x="82" y="107" width="368" height="364"/></clipPath><clipPath id="clip1"><rect x="82" y="107" width="367" height="363"/></clipPath><clipPath id="clip2"><rect x="276" y="238" width="131" height="127"/></clipPath><clipPath id="clip3"><rect x="276" y="238" width="131" height="127"/></clipPath><clipPath id="clip4"><rect x="276" y="238" width="131" height="127"/></clipPath><clipPath id="clip5"><rect x="126" y="230" width="128" height="127"/></clipPath><clipPath id="clip6"><rect x="126" y="230" width="128" height="127"/></clipPath><clipPath id="clip7"><rect x="114" y="217" width="151" height="151"/></clipPath></defs><g clip-path="url(#clip0)" transform="translate(-82 -107)"><g clip-path="url(#clip1)"><path d="M371.758 250.619C371.768 236.327 365.974 222.645 355.703 212.707 370.087 188.788 362.357 157.737 338.439 143.353 337.235 142.629 336.002 141.956 334.742 141.335 341.347 119.224 328.777 95.9455 306.666 89.3406 306.273 89.2236 305.879 89.1118 305.483 89.0061 303.881 64.727 282.899 46.3435 258.62 47.9464 235.453 49.4754 217.449 68.72 217.464 91.9372L217.464 336.594C217.406 354.847 232.157 369.692 250.41 369.75 264.931 369.796 277.782 360.358 282.083 346.488 308.197 352.233 334.024 335.72 339.769 309.606 340.527 306.16 340.906 302.641 340.9 299.112 340.9 298.964 340.9 298.821 340.9 298.677 359.699 290.071 371.755 271.295 371.758 250.619ZM285.088 252.228C285.088 252.228 246.075 222.396 246.075 198.304 246.075 182.239 270.628 165.027 285.088 193.711 299.543 165.009 324.1 182.239 324.1 198.304 324.1 222.396 285.088 252.228 285.088 252.228Z" transform="matrix(1.00034 0 -0 1 54.6205 79.6424)"/><path d="M117.53 233.694C111.264 235.575 107.709 242.18 109.59 248.446 111.471 254.712 118.076 258.267 124.342 256.385 130.608 254.504 134.163 247.9 132.282 241.633 132.281 241.633 132.281 241.631 132.281 241.63 130.401 235.366 123.799 231.813 117.535 233.692 117.533 233.693 117.531 233.693 117.53 233.694Z" transform="matrix(1.00034 0 -0 1 54.6205 79.6424)"/><path d="M135.099 165.462C128.833 167.342 125.277 173.947 127.157 180.213 129.038 186.479 135.642 190.034 141.909 188.154 148.175 186.274 151.73 179.669 149.85 173.403 149.85 173.403 149.85 173.403 149.85 173.403 147.969 167.136 141.365 163.581 135.099 165.462Z" transform="matrix(1.00034 0 -0 1 54.6205 79.6424)"/><path d="M155.986 47.8364C132.796 47.8547 113.59 65.8485 112.063 88.9887 89.7654 94.9309 76.5065 117.824 82.4491 140.122 82.5569 140.528 82.6713 140.932 82.7918 141.335 57.759 153.668 47.4637 183.959 59.7968 208.992 60.4235 210.264 61.1036 211.509 61.8351 212.724 40.8972 233.03 40.3846 266.464 60.69 287.402 65.2658 292.12 70.6818 295.943 76.66 298.673 76.66 298.821 76.66 298.964 76.66 299.108 76.6169 325.847 98.2581 347.558 124.997 347.601 128.513 347.606 132.02 347.229 135.455 346.475 140.869 363.907 159.39 373.649 176.822 368.235 190.675 363.933 200.103 351.1 200.069 336.594L200.069 91.9198C200.072 67.5754 180.339 47.839 155.994 47.8364 155.991 47.8364 155.989 47.8364 155.986 47.8364ZM152.372 257.486 148.628 264.444 140.861 264.213C139.297 265.809 137.544 267.208 135.642 268.38L134.338 276.038 126.806 278.321 121.483 272.698C119.259 272.748 117.038 272.526 114.868 272.037L108.471 276.477 101.548 272.75 101.726 264.966C100.134 263.402 98.7378 261.649 97.5689 259.747L89.8976 258.417 87.6319 250.871 93.3158 245.596C93.2471 243.365 93.4501 241.134 93.9202 238.952L89.4628 232.615 93.207 225.657 101.004 225.879C102.547 224.279 104.277 222.872 106.158 221.687L107.462 214.024 115.007 211.759 120.339 217.438C122.576 217.381 124.813 217.599 126.997 218.086L133.35 213.611 140.309 217.36 140.078 225.127C141.688 226.688 143.102 228.441 144.288 230.345L151.946 231.65 154.212 239.191 148.558 244.527C148.606 246.75 148.384 248.971 147.897 251.141ZM169.858 189.263 166.114 196.221 158.347 195.986C156.805 197.587 155.074 198.996 153.194 200.182L151.859 207.871 144.318 210.137 138.982 204.483C136.759 204.533 134.537 204.311 132.368 203.822L126.014 208.297 119.056 204.553 119.347 196.699C117.743 195.159 116.333 193.429 115.151 191.546L107.488 190.241 105.227 182.7 110.88 177.364C110.825 175.143 111.041 172.923 111.524 170.754L106.98 164.383 110.785 157.386 118.552 157.621C120.108 156.028 121.853 154.63 123.748 153.459L125.079 145.792 132.637 143.509 137.96 149.128C140.182 149.081 142.402 149.305 144.57 149.793L150.928 145.331 157.886 149.08 157.647 156.882C159.252 158.421 160.661 160.152 161.844 162.035L169.506 163.34 171.772 170.88 166.118 176.221C166.152 178.474 165.91 180.723 165.397 182.918Z" transform="matrix(1.00034 0 -0 1 54.6205 79.6424)"/></g><path d="M286.5 292C286.5 251.407 311.124 218.5 341.5 218.5 371.876 218.5 396.5 251.407 396.5 292 396.5 332.593 371.876 365.5 341.5 365.5 311.124 365.5 286.5 332.593 286.5 292Z" stroke="#000000" stroke-width="1.33333" stroke-miterlimit="8" fill-rule="evenodd"/><path d="M126.5 292C126.5 251.407 151.124 218.5 181.5 218.5 211.876 218.5 236.5 251.407 236.5 292 236.5 332.593 211.876 365.5 181.5 365.5 151.124 365.5 126.5 332.593 126.5 292Z" stroke="#000000" stroke-width="1.33333" stroke-miterlimit="8" fill-rule="evenodd"/><g clip-path="url(#clip2)"><g clip-path="url(#clip3)"><g clip-path="url(#clip4)"><path d="M127.149 12.4571 123.669 3.30759C123.511 2.89813 123.12 2.62599 122.681 2.6203L110.525 2.6203 110.525 2.6203 89.8633 5.06877 63.8321 0 63.4026 0 37.6292 5.06877 16.7527 2.6203 16.7527 2.6203 4.5533 2.6203C4.11448 2.62599 3.72327 2.89814 3.56532 3.30759L0 12.4571C-0.0248734 12.5993-0.0248734 12.7446 0 12.8867L0 12.8867C0 12.8867 0 12.8867 0 12.8867L10.2235 40.9368 10.2235 68.2566C10.2235 68.2566 10.2235 68.2566 10.2235 68.2566 10.2751 68.4305 10.363 68.5915 10.4812 68.7291 10.4812 68.7291 10.4812 68.7291 10.4812 68.7291L29.2099 84.9234 38.1017 107.389C38.1017 107.389 38.1017 107.389 38.1017 107.389L38.1017 107.389C38.1017 107.389 38.1017 107.389 38.1017 107.389 38.2603 107.543 38.451 107.661 38.6601 107.733L38.6601 107.733 42.612 108.334 49.9575 120.276C50.0542 120.459 50.2039 120.609 50.387 120.705L63.2737 126.462C63.5337 126.635 63.8728 126.635 64.1328 126.462L77.0195 120.705C77.1551 120.591 77.2587 120.443 77.3202 120.276L84.4079 108.764 88.3598 108.162 88.3598 108.162C88.569 108.09 88.7597 107.973 88.9182 107.819 88.9183 107.819 88.9183 107.819 88.9183 107.819 88.9183 107.819 88.9183 107.819 88.9183 107.819 88.9183 107.819 88.9183 107.819 88.9183 107.819L97.8101 85.1811 116.453 69.2446C116.453 69.2446 116.453 69.2446 116.453 69.2446 116.571 69.1069 116.659 68.9459 116.711 68.772 116.711 68.772 116.711 68.772 116.711 68.772L116.711 68.772 116.711 40.9368 126.891 13.1874C126.91 13.0736 126.91 12.9576 126.891 12.8437 126.91 12.7588 126.91 12.6709 126.891 12.586 126.891 12.586 127.192 12.5001 127.149 12.4571ZM125.044 12.8867 115.98 37.3285 112.028 23.3249C111.982 23.1164 111.859 22.9326 111.685 22.8095L99.8719 12.8867 106.315 8.03271 110.955 4.5533 121.951 4.5533ZM85.5247 96.2207 81.2292 84.1502 73.0247 53.2221 79.2962 47.2512 79.2962 52.7496 79.2962 52.7496C79.2337 52.9452 79.2337 53.1554 79.2962 53.3509L91.0231 68.7291 96.0059 84.279 88.231 104.168ZM65.8081 109.494 64.949 109.494 63.6174 109.494 62.2857 109.494 61.4266 109.494 63.6174 109.494 64.4335 109.494ZM55.8424 52.1052 48.1104 44.7598 62.4146 22.8954 62.4146 83.377 48.2392 83.377 56.2719 53.308C56.3823 52.8572 56.2133 52.3841 55.8424 52.1052ZM88.9183 7.68907 89.5196 7.38838 95.8771 12.4571 97.2516 13.6169 103.094 33.5913 95.2757 43.8577 80.9285 43.8577 65.1638 19.7596ZM82.5178 53.9523 101.504 53.9523 92.0111 66.4524 85.9113 58.2909ZM101.118 51.8045 90.2069 51.8045 95.8341 46.3921 97.896 48.5399ZM87.243 51.8045 81.6158 51.8045 81.6158 45.9626 93.4715 45.9626ZM31.4006 46.3921 36.9419 51.8045 26.1171 51.8045 28.9092 48.9265ZM35.3096 66.4524 25.7734 53.9523 44.7598 53.9523 41.4952 58.2479ZM40.0776 51.8045 33.935 45.9626 45.7907 45.9626 45.7907 51.8045ZM30.069 13.6169 37.5862 7.38838 38.1876 7.68907 62.0709 19.7596 46.3062 43.8577 31.8302 43.8577 24.0122 33.5913 27.7494 21.0912ZM63.6174 85.4818 77.0195 85.4818 63.6174 94.8461 50.2152 85.4818ZM70.9628 53.1362 78.9955 83.2051 64.6912 83.2051 64.6912 22.8954 78.9955 44.7598 71.2635 52.1052C71.0006 52.379 70.8883 52.764 70.9628 53.1362ZM114.219 38.6601 112.243 37.4574 105.284 33.1618 102.32 23.1961 100.173 16.0225 110.224 24.227ZM27.0621 16.0225 24.3988 24.8713 21.9503 33.1188 16.0654 36.6412 12.8867 38.6601 17.1823 24.227ZM12.3283 65.2067 12.3283 41.3234 22.5947 35.1807 23.7974 36.7701 30.069 44.8028 22.8524 52.1482 22.8524 52.1482ZM13.4022 67.2256 23.5827 54.5967 34.0639 68.3854 29.7683 82.4319 12.8867 68.0418ZM36.2116 68.7291 47.7238 53.5657C47.7862 53.3701 47.7862 53.1599 47.7238 52.9643L47.7238 52.9643 47.7238 47.2512 53.8235 53.0932 45.6189 84.0213 39.0038 104.125 31.2288 84.2361ZM93.1709 68.4284 103.652 54.6396 105.198 56.5726 114.52 68.0847 97.6382 82.4749ZM104.425 52.2341 104.425 52.2341 97.3805 44.8887 103.094 37.0278 104.468 35.1807 114.735 41.3234 114.735 65.2067 112.372 62.2428ZM106.831 5.24059 102.106 8.59114 98.1967 11.5121 92.3977 6.787ZM63.6174 2.14778 86.5557 6.44335 63.6174 18.1702 40.679 6.61517ZM34.8371 6.91586 29.038 11.641 24.4847 8.24749 20.1892 5.19764ZM5.28355 4.72512 16.2802 4.72512 27.3628 12.8867 15.4211 22.8095C15.2464 22.9326 15.1239 23.1164 15.0774 23.3249L11.1255 37.3285 2.19074 12.8867ZM47.2512 85.9113 56.7874 92.6124 62.3716 96.5214 62.3716 107.389 50.7307 107.991 43.5141 106.874 43.5141 106.874 40.3354 106.401ZM45.4471 109.064 50.5159 109.838 62.3716 111.599 62.3716 123.755 51.5468 118.944ZM75.5161 118.772 64.5194 123.755 64.5194 111.685 76.3752 109.924 81.6158 109.236ZM83.4199 106.616 83.4199 106.616 76.2034 107.733 64.6912 107.389 64.6912 96.6932 79.8116 85.9113 82.6467 94.5025 86.9423 106.444Z" fill="#FFFFFF" transform="matrix(1 0 -0 1.0029 277.883 238)"/></g></g></g><g clip-path="url(#clip5)"><g clip-path="url(#clip6)"><g clip-path="url(#clip7)"><path d="M15.5623 52.9119 26.456 52.9119 26.456 59.1368 15.5623 59.1368Z" fill="#FFFFFF" transform="matrix(1 0 -0 1.00208 114.777 217.932)"/><path d="M15.5623 40.462 26.456 40.462 26.456 46.687 15.5623 46.687Z" fill="#FFFFFF" transform="matrix(1 0 -0 1.00208 114.777 217.932)"/><path d="M15.5623 65.3618 26.456 65.3618 26.456 71.5867 15.5623 71.5867Z" fill="#FFFFFF" transform="matrix(1 0 -0 1.00208 114.777 217.932)"/><path d="M15.5623 102.711 26.456 102.711 26.456 108.936 15.5623 108.936Z" fill="#FFFFFF" transform="matrix(1 0 -0 1.00208 114.777 217.932)"/><path d="M15.5623 90.2615 26.456 90.2615 26.456 96.4864 15.5623 96.4864Z" fill="#FFFFFF" transform="matrix(1 0 -0 1.00208 114.777 217.932)"/><path d="M15.5623 77.8116 26.456 77.8116 26.456 84.0366 15.5623 84.0366Z" fill="#FFFFFF" transform="matrix(1 0 -0 1.00208 114.777 217.932)"/><path d="M122.942 90.2615 133.836 90.2615 133.836 96.4864 122.942 96.4864Z" fill="#FFFFFF" transform="matrix(1 0 -0 1.00208 114.777 217.932)"/><path d="M122.942 102.711 133.836 102.711 133.836 108.936 122.942 108.936Z" fill="#FFFFFF" transform="matrix(1 0 -0 1.00208 114.777 217.932)"/><path d="M122.942 77.8116 133.836 77.8116 133.836 84.0366 122.942 84.0366Z" fill="#FFFFFF" transform="matrix(1 0 -0 1.00208 114.777 217.932)"/><path d="M122.942 40.462 133.836 40.462 133.836 46.687 122.942 46.687Z" fill="#FFFFFF" transform="matrix(1 0 -0 1.00208 114.777 217.932)"/><path d="M122.942 65.3618 133.836 65.3618 133.836 71.5867 122.942 71.5867Z" fill="#FFFFFF" transform="matrix(1 0 -0 1.00208 114.777 217.932)"/><path d="M122.942 52.9119 133.836 52.9119 133.836 59.1368 122.942 59.1368Z" fill="#FFFFFF" transform="matrix(1 0 -0 1.00208 114.777 217.932)"/><path d="M77.8116 15.5623 84.0366 15.5623 84.0366 26.456 77.8116 26.456Z" fill="#FFFFFF" transform="matrix(1 0 -0 1.00208 114.777 217.932)"/><path d="M102.711 15.5623 108.936 15.5623 108.936 26.456 102.711 26.456Z" fill="#FFFFFF" transform="matrix(1 0 -0 1.00208 114.777 217.932)"/><path d="M90.2615 15.5623 96.4864 15.5623 96.4864 26.456 90.2615 26.456Z" fill="#FFFFFF" transform="matrix(1 0 -0 1.00208 114.777 217.932)"/><path d="M65.3618 15.5623 71.5867 15.5623 71.5867 26.456 65.3618 26.456Z" fill="#FFFFFF" transform="matrix(1 0 -0 1.00208 114.777 217.932)"/><path d="M40.462 15.5623 46.687 15.5623 46.687 26.456 40.462 26.456Z" fill="#FFFFFF" transform="matrix(1 0 -0 1.00208 114.777 217.932)"/><path d="M52.9119 15.5623 59.1368 15.5623 59.1368 26.456 52.9119 26.456Z" fill="#FFFFFF" transform="matrix(1 0 -0 1.00208 114.777 217.932)"/><path d="M52.9119 122.942 59.1368 122.942 59.1368 133.836 52.9119 133.836Z" fill="#FFFFFF" transform="matrix(1 0 -0 1.00208 114.777 217.932)"/><path d="M40.462 122.942 46.687 122.942 46.687 133.836 40.462 133.836Z" fill="#FFFFFF" transform="matrix(1 0 -0 1.00208 114.777 217.932)"/><path d="M65.3618 122.942 71.5867 122.942 71.5867 133.836 65.3618 133.836Z" fill="#FFFFFF" transform="matrix(1 0 -0 1.00208 114.777 217.932)"/><path d="M77.8116 122.942 84.0366 122.942 84.0366 133.836 77.8116 133.836Z" fill="#FFFFFF" transform="matrix(1 0 -0 1.00208 114.777 217.932)"/><path d="M90.2615 122.942 96.4864 122.942 96.4864 133.836 90.2615 133.836Z" fill="#FFFFFF" transform="matrix(1 0 -0 1.00208 114.777 217.932)"/><path d="M102.711 122.942 108.936 122.942 108.936 133.836 102.711 133.836Z" fill="#FFFFFF" transform="matrix(1 0 -0 1.00208 114.777 217.932)"/><path d="M54.4681 54.4681 94.9302 54.4681 94.9302 94.9302 54.4681 94.9302Z" fill="#FFFFFF" transform="matrix(1 0 -0 1.00208 114.777 217.932)"/><path d="M110.493 32.6809 38.9058 32.6809C35.4679 32.6809 32.6809 35.4679 32.6809 38.9058L32.6809 110.493C32.6809 113.93 35.4679 116.717 38.9058 116.717L110.493 116.717C113.93 116.717 116.717 113.93 116.717 110.493L116.717 38.9058C116.717 35.4679 113.93 32.6809 110.493 32.6809ZM101.155 101.155 48.2432 101.155 48.2432 48.2432 101.155 48.2432Z" fill="#FFFFFF" transform="matrix(1 0 -0 1.00208 114.777 217.932)"/></g></g></g></g></svg>